<svg width="24" height="24" viewBox="0 0 24 24" fill="none" xmlns="http://www.w3.org/2000/svg">
<path fill-rule="evenodd" clip-rule="evenodd" d="M12 1.5C6.20101 1.5 1.5 6.20101 1.5 12C1.5 17.799 6.20101 22.5 12 22.5C17.799 22.5 22.5 17.799 22.5 12C22.5 6.20101 17.799 1.5 12 1.5ZM10.5 8.25C10.5 7.42157 9.82843 6.75 9 6.75C8.17157 6.75 7.5 7.42157 7.5 8.25C7.5 9.07843 8.17157 9.75 9 9.75C9.82843 9.75 10.5 9.07843 10.5 8.25ZM15 6.75C15.8284 6.75 16.5 7.42157 16.5 8.25C16.5 9.07843 15.8284 9.75 15 9.75C14.1716 9.75 13.5 9.07843 13.5 8.25C13.5 7.42157 14.1716 6.75 15 6.75ZM17.25 14.25C17.25 15.0784 16.5784 15.75 15.75 15.75H8.25C7.42157 15.75 6.75 15.0784 6.75 14.25C6.75 13.4216 7.42157 12.75 8.25 12.75H15.75C16.5784 12.75 17.25 13.4216 17.25 14.25Z" fill="currentColor"/>
</svg>
